Coordinates
version=1
nRows=29
nColumns=24
inDegrees=yes

Units are S.I. units (second, meters, Newtons, ...)
Angles are in degrees.

endheader
time	pelvis_tilt	pelvis_list	pelvis_rotation	pelvis_tx	pelvis_ty	pelvis_tz	hip_flexion_r	hip_adduction_r	hip_rotation_r	knee_angle_r	ankle_angle_r	subtalar_angle_r	mtp_angle_r	hip_flexion_l	hip_adduction_l	hip_rotation_l	knee_angle_l	ankle_angle_l	subtalar_angle_l	mtp_angle_l	lumbar_extension	lumbar_bending	lumbar_rotation
      1.25500000	     21.43832020	     -7.23236169	      8.63187756	      0.14328424	      0.85118165	      0.01814600	    -19.03353695	     14.55362192	    -20.77321814	     -2.88877102	     22.44348714	     13.10566380	     36.43245973	     -6.43202788	    -12.65471392	     -4.31180202	    -68.55483510	     17.17282244	     -0.79110889	     49.88951752	    -34.44398307	      9.65539898	     -9.80173809
      1.26000000	     21.41690232	     -7.02792170	      8.41383706	      0.14842225	      0.85172243	      0.01862452	    -19.49322858	     14.34933120	    -20.73376134	     -2.80749252	     22.76485820	     13.34217095	     36.35748685	     -5.86280335	    -12.32150262	     -4.63656135	    -68.04773415	     17.95933740	     -0.43381178	     49.77430509	    -34.47936439	      9.29142723	     -9.65852121
      1.26500000	     21.37702078	     -6.81212689	      8.25596099	      0.15351735	      0.85219068	      0.01899690	    -19.93776524	     14.14965550	    -20.71452842	     -2.68491260	     23.02741486	     13.57739447	     36.22383922	     -5.24935925	    -11.96524830	     -4.88760905	    -67.47334019	     18.72778901	     -0.12540367	     49.55816853	    -34.49046177	      8.94586053	     -9.59138658
      1.27000000	     21.35070375	     -6.60007173	      8.17592623	      0.15861312	      0.85261810	      0.01918779	    -20.38500290	     13.96844628	    -20.82959746	     -2.58005786	     23.36161754	     14.07431934	     34.89891150	     -4.64201060	    -11.60056810	     -5.04454238	    -66.82751515	     19.66836910	      0.34390007	     47.42863421	    -34.50307732	      8.65226271	     -9.55686404
      1.27500000	     21.24231931	     -6.39465184	      8.04044538	      0.16366607	      0.85292402	      0.01951380	    -20.75671598	     13.77782327	    -20.65317753	     -2.42442406	     23.58147763	     14.10500106	     34.88029882	     -3.95722246	    -11.23669686	     -5.27184834	    -66.07078020	     20.28202319	      0.49159153	     47.44502166	    -34.43722076	      8.32021604	     -9.52969767
      1.28000000	     21.23577137	     -6.16651853	      7.86877342	      0.16879814	      0.85335013	      0.01990365	    -21.24040015	     13.56380776	    -20.52595391	     -2.29905945	     23.86059572	     14.12829087	     34.78253356	     -3.45677368	    -10.89034305	     -5.61292830	    -65.15737123	     20.93096488	      0.92065748	     47.37596603	    -34.47748374	      7.94707555	     -9.41812554
      1.28500000	     21.21619301	     -5.94355367	      7.74988553	      0.17390836	      0.85369841	      0.02019438	    -21.71304872	     13.36866326	    -20.39529806	     -2.14211780	     24.07661138	     14.16280577	     34.63367961	     -2.93630546	    -10.53630903	     -5.87903450	    -64.16305619	     21.56071972	      1.23427013	     47.22349327	    -34.49823603	      7.60630234	     -9.36515948
      1.29000000	     21.19793906	     -5.71552726	      7.64514874	      0.17903954	      0.85401106	      0.02043509	    -22.18499445	     13.16833325	    -20.24655903	     -1.99507448	     24.30241405	     14.15637928	     34.44942454	     -2.43934571	    -10.17823546	     -6.14953182	    -63.06761128	     22.14661298	      1.50699629	     47.01526748	    -34.51419142	      7.27012492	     -9.32298367
      1.29500000	     21.18308213	     -5.48810585	      7.55333071	      0.18417257	      0.85428486	      0.02065775	    -22.65832270	     12.97273330	    -20.08077638	     -1.84753416	     24.52151016	     14.11811493	     34.23783142	     -1.96730531	     -9.82053387	     -6.40900314	    -61.87226368	     22.69208109	      1.73553101	     46.77356298	    -34.53118585	      6.93779097	     -9.29363369
      1.30000000	     21.18455073	     -5.25638182	      7.46567493	      0.18931649	      0.85453830	      0.02082869	    -23.15420210	     12.77139870	    -19.88865668	     -1.69182733	     24.73701053	     14.04022282	     33.98511452	     -1.54330553	     -9.45855835	     -6.67798431	    -60.57451359	     23.20739602	      1.94446635	     46.48672218	    -34.56427470	      6.61048339	     -9.26031542
      1.30500000	     21.17409195	     -5.02932646	      7.39533792	      0.19446150	      0.85472763	      0.02096240	    -23.63016748	     12.57756427	    -19.69332636	     -1.54301650	     24.95365961	     13.92892961	     33.73832518	     -1.12441339	     -9.09816568	     -6.92600383	    -59.19025049	     23.68440577	      2.10470496	     46.21569881	    -34.58207680	      6.29541360	     -9.24378676
      1.31000000	     21.16511597	     -4.82818982	      7.34706906	      0.19959385	      0.85484918	      0.02105590	    -24.10729822	     12.41466274	    -19.42526986	     -1.40095483	     25.25594572	     13.85534529	     31.91890808	     -0.72072481	     -8.76430796	     -7.14290840	    -57.74847561	     24.31517778	      2.39688469	     44.21807047	    -34.59925484	      6.01717505	     -9.25148345
      1.31500000	     21.16815355	     -4.58863333	      7.27554480	      0.20477887	      0.85498022	      0.02113425	    -24.57966677	     12.19731753	    -19.24986931	     -1.30874167	     25.52650444	     13.74650856	     31.87219104	     -0.38844092	     -8.39424251	     -7.41728821	    -56.15678455	     24.68942870	      2.52538351	     44.21524015	    -34.62664631	      5.69297483	     -9.24358421
      1.32000000	     21.20944642	     -4.34642217	      7.21495862	      0.20995726	      0.85512175	      0.02117559	    -25.11101941	     11.98700995	    -19.01359866	     -1.17136712	     25.71853594	     13.56227726	     31.77154014	     -0.13457147	     -8.02176211	     -7.68025712	    -54.45949139	     25.04720342	      2.62903597	     44.17742988	    -34.69653416	      5.37727407	     -9.25178535
      1.32500000	     21.24544702	     -4.10663365	      7.15332638	      0.21514628	      0.85522542	      0.02119016	    -25.63355446	     11.77499381	    -18.75918930	     -1.04299721	     25.91568919	     13.33742082	     31.64192102	      0.08967837	     -7.64906989	     -7.94710438	    -52.66630074	     25.37750397	      2.73887523	     44.11843647	    -34.75990835	      5.06404378	     -9.26853719
      1.33000000	     21.30144611	     -3.86554037	      7.09552902	      0.22034299	      0.85530005	      0.02117159	    -26.17765844	     11.56263273	    -18.50176088	     -0.91636190	     26.11535569	     13.10018518	     31.48982425	      0.25521998	     -7.27813422	     -8.22122513	    -50.77958231	     25.68825221	      2.87484620	     44.04875291	    -34.84405315	      4.75704098	     -9.29244366
      1.33500000	     21.35990213	     -3.62157878	      7.03756677	      0.22555221	      0.85534719	      0.02111945	    -26.72276222	     11.34385221	    -18.24820354	     -0.79612532	     26.32026602	     12.85490146	     31.32300126	      0.37770519	     -6.90183352	     -8.50105692	    -48.79588407	     25.97222584	      3.03602415	     43.97551341	    -34.93121006	      4.45111033	     -9.33341938
      1.34000000	     21.44111908	     -3.37183204	      6.95670093	      0.23082356	      0.85541327	      0.02106002	    -27.31059239	     11.11223701	    -17.99793144	     -0.64539853	     26.45000786	     12.64602112	     31.05197560	      0.41228890	     -6.52164802	     -8.83310175	    -46.69073024	     26.24815609	      3.21326547	     43.86871059	    -35.03717876	      4.13167914	     -9.33802157
      1.34500000	     21.51378310	     -3.11685253	      6.90866183	      0.23601935	      0.85540366	      0.02090083	    -27.85316174	     10.87614475	    -17.77326940	     -0.57019849	     26.73178323	     12.39352225	     30.86756443	      0.43952419	     -6.12088877	     -9.09404416	    -44.51513324	     26.44818798	      3.48169258	     43.80530601	    -35.14373694	      3.83313071	     -9.42746975
      1.35000000	     21.60489117	     -2.85452879	      6.83733787	      0.24128430	      0.85541146	      0.02074476	    -28.43580093	     10.62635487	    -17.55801931	     -0.46050106	     26.93352649	     12.19131000	     30.65582249	      0.37842598	     -5.71213696	     -9.40326458	    -42.21636644	     26.63456315	      3.76957508	     43.74840026	    -35.26412537	      3.51757832	     -9.48134345
      1.35500000	     21.71831874	     -2.58877853	      6.75251321	      0.24660637	      0.85541875	      0.02054770	    -29.05401808	     10.36614879	    -17.38801650	     -0.33344154	     27.09592102	     12.04939490	     30.37521426	      0.23239771	     -5.29640561	     -9.74563637	    -39.80686267	     26.79714704	      4.09761583	     43.69576127	    -35.40116603	      3.19981107	     -9.49670205
      1.36000000	     21.83770692	     -2.31694323	      6.66734088	      0.25192050	      0.85539367	      0.02032158	    -29.66531228	     10.09313542	    -17.22818308	     -0.24493624	     27.31023229	     11.96671436	     30.00706136	      0.03400331	     -4.86554283	    -10.08667402	    -37.30613679	     26.91432909	      4.47351460	     43.66098739	    -35.54985370	      2.87897219	     -9.59761864
      1.36500000	     21.96382670	     -2.04550163	      6.59342159	      0.25721952	      0.85533903	      0.02000897	    -30.27726350	      9.82280650	    -17.12494096	     -0.16373814	     27.56258233	     11.84265802	     29.73950319	     -0.21537566	     -4.41980963	    -10.39471016	    -34.71453906	     26.92532907	      4.92172892	     43.65682956	    -35.70691580	      2.57609899	     -9.65149295
      1.37000000	     22.09849814	     -1.77493753	      6.50623658	      0.26257776	      0.85526452	      0.01968615	    -30.90147577	      9.54475448	    -17.04573262	     -0.08751764	     27.78972967	     11.80224077	     29.45873373	     -0.53343151	     -3.96778279	    -10.72890151	    -32.02891962	     26.89626448	      5.39639031	     43.68266231	    -35.86663726	      2.26863567	     -9.74092327
      1.37500000	     22.24370115	     -1.51259153	      6.42073465	      0.26794061	      0.85515275	      0.01932002	    -31.52788698	      9.27112429	    -16.99410639	     -0.03519936	     28.03226676	     11.79028488	     29.19465470	     -0.90448518	     -3.51490996	    -11.06093119	    -29.27757761	     26.78325180	      5.90897407	     43.73533513	    -36.03747260	      1.97522212	     -9.86621229
      1.38000000	     22.38566776	     -1.25932801	      6.33090931	      0.27337421	      0.85499630	      0.01889857	    -32.15819075	      9.00195507	    -16.99880463	      0.02915434	     28.26444860	     11.84207552	     28.92681488	     -1.32541443	     -3.05544402	    -11.39110140	    -26.45241597	     26.60095447	      6.44170393	     43.82523237	    -36.19367581	      1.69507013	     -9.95171841
      1.38500000	     22.53289536	     -1.00463980	      6.27388801	      0.27884178	      0.85478279	      0.01831908	    -32.74298601	      8.72851417	    -17.27543685	     -0.04948300	     28.71430864	     12.30607012	     27.73873953	     -1.78983595	     -2.57319491	    -11.66547283	    -23.57307464	     26.28451044	      6.91784646	     44.56496376	    -36.34990472	      1.44457097	    -10.07021319
      1.39000000	     22.65091755	     -0.81360757	      6.17469519	      0.28433936	      0.85446936	      0.01787681	    -33.37082272	      8.51566761	    -17.17922811	      0.07962559	     28.85234683	     12.22368514	     27.58813514	     -2.24008471	     -2.16127961	    -11.98961445	    -20.72094029	     25.93803467	      7.47575396	     44.64874514	    -36.46547754	      1.21906016	    -10.14399366
      1.39500000	     22.78068362	     -0.64131037	      6.09970249	      0.28987706	      0.85410481	      0.01732585	    -33.97647865	      8.32063165	    -17.26022959	      0.11877119	     29.06089864	     12.35548439	     27.44801581	     -2.72802704	     -1.75871171	    -12.27892233	    -17.87522316	     25.50892431	      8.05382403	     44.80694405	    -36.58565741	      1.03385899	    -10.22669955
